<?xml version="1.0" encoding="utf-8"?>
<!-- Generator: Adobe Illustrator 25.3.1, SVG Export Plug-In . SVG Version: 6.00 Build 0)  -->
<svg version="1.1" id="Layer_1" xmlns="http://www.w3.org/2000/svg" xmlns:xlink="http://www.w3.org/1999/xlink" x="0px" y="0px"
	 viewBox="0 0 30 30" style="enable-background:new 0 0 30 30;" xml:space="preserve">
<style type="text/css">
	.st0{fill:#25B6D2;}
	.st1{fill:#FDFEFE;}
	.st2{fill:#FCFDFE;}
</style>
<g>
	<path class="st0" d="M28,14.05c0,0.62,0,1.25,0,1.87c-0.06,0.03-0.05,0.08-0.05,0.13c-0.04,0.57-0.13,1.14-0.26,1.7
		c-1.57,7-8.46,11.41-15.44,9.86c-7-1.55-11.44-8.5-9.87-15.46C3.58,6.87,7.82,2.93,13.19,2.13c0.3-0.04,0.6-0.04,0.89-0.13
		c0.62,0,1.25,0,1.87,0c0.03,0.06,0.09,0.04,0.13,0.05c0.7,0.05,1.39,0.17,2.07,0.33c5.08,1.23,8.98,5.53,9.71,10.71
		C27.91,13.41,27.91,13.74,28,14.05z M12.2,22.62c0,0.13-0.01,0.25,0,0.38c0.06,0.84,0.74,1.39,1.57,1.3
		c0.44-0.05,0.83-0.2,1.22-0.39c0.96-0.48,1.75-1.2,2.55-1.9c0.31-0.27,0.61-0.56,0.91-0.84c0.12-0.11,0.18-0.23,0.08-0.38
		c-0.1-0.15-0.24-0.13-0.38-0.07c-0.1,0.05-0.2,0.09-0.3,0.14c-0.82,0.36-1.61,0.76-2.45,1.07c-0.24,0.09-0.32,0.03-0.3-0.23
		c0.03-0.28,0.06-0.57,0.12-0.85c0.36-1.74,0.87-3.45,1.36-5.15c0.39-1.34,0.82-2.67,1.11-4.04c0.16-0.73-0.16-1.25-0.84-1.38
		c-0.16-0.03-0.32-0.03-0.48-0.03c-0.86,0.03-1.61,0.39-2.34,0.82c-1.03,0.61-1.88,1.45-2.7,2.32c-0.11,0.12-0.21,0.24-0.1,0.4
		c0.12,0.17,0.27,0.12,0.43,0.06c0.86-0.36,1.73-0.7,2.57-1.13c0.06-0.03,0.12-0.05,0.19-0.07c0.14-0.04,0.23-0.02,0.19,0.16
		c-0.04,0.17-0.07,0.35-0.12,0.52c-0.57,1.94-1.18,3.87-1.66,5.83C12.55,20.29,12.27,21.43,12.2,22.62z M15.74,7.53
		c-0.01,1.01,0.81,1.67,1.75,1.4c0.88-0.25,1.53-1.29,1.37-2.19c-0.13-0.74-0.76-1.2-1.5-1.1C16.42,5.74,15.75,6.53,15.74,7.53z"/>
	<path class="st1" d="M12.2,22.62c0.07-1.18,0.35-2.33,0.63-3.48c0.48-1.96,1.09-3.89,1.66-5.83c0.05-0.17,0.08-0.34,0.12-0.52
		c0.05-0.18-0.04-0.2-0.19-0.16c-0.06,0.02-0.13,0.04-0.19,0.07c-0.83,0.43-1.71,0.76-2.57,1.13c-0.16,0.07-0.31,0.12-0.43-0.06
		c-0.11-0.16-0.01-0.28,0.1-0.4c0.82-0.87,1.66-1.7,2.7-2.32c0.72-0.43,1.47-0.79,2.34-0.82c0.16-0.01,0.32,0,0.48,0.03
		c0.68,0.13,1,0.66,0.84,1.38c-0.3,1.37-0.73,2.7-1.11,4.04c-0.49,1.71-1,3.41-1.36,5.15c-0.06,0.28-0.1,0.57-0.12,0.85
		c-0.02,0.27,0.06,0.32,0.3,0.23c0.84-0.31,1.64-0.71,2.45-1.07c0.1-0.04,0.2-0.09,0.3-0.14c0.14-0.07,0.28-0.08,0.38,0.07
		c0.1,0.15,0.04,0.27-0.08,0.38c-0.3,0.28-0.6,0.57-0.91,0.84c-0.8,0.7-1.59,1.42-2.55,1.9c-0.38,0.19-0.78,0.34-1.22,0.39
		c-0.83,0.09-1.52-0.47-1.57-1.3C12.2,22.87,12.2,22.74,12.2,22.62z"/>
	<path class="st2" d="M15.74,7.53c0.01-1,0.68-1.78,1.61-1.9c0.75-0.09,1.37,0.36,1.5,1.1c0.16,0.9-0.48,1.94-1.37,2.19
		C16.56,9.19,15.73,8.53,15.74,7.53z"/>
</g>
</svg>
