<?xml version="1.0" encoding="utf-8"?>
<!-- Generator: Adobe Illustrator 25.3.0, SVG Export Plug-In . SVG Version: 6.00 Build 0)  -->
<svg version="1.1" id="Capa_1" xmlns="http://www.w3.org/2000/svg" xmlns:xlink="http://www.w3.org/1999/xlink" x="0px" y="0px"
	 viewBox="0 0 490.8 490.8" style="enable-background:new 0 0 490.8 490.8;" xml:space="preserve">
<style type="text/css">
	.st0{fill:#F44336;}
</style>
<path class="st0" d="M120.5,487.7c-4.2-4.2-4.2-10.9,0-15.1l227.1-227.1L120.6,18.3c-0.1-0.1-0.2-0.2-0.3-0.3
	c-4.1-4.2-4-11,0.3-15.1c4.2-4.1,11-4,15.1,0.3l234.7,234.7c4.2,4.2,4.2,10.9,0,15.1L135.7,487.7c-2,2-4.7,3.1-7.6,3.1
	C125.3,490.8,122.6,489.7,120.5,487.7z"/>
<path d="M120.5,487.7c-4.2-4.2-4.2-10.9,0-15.1l227.1-227.1L120.6,18.3c-0.1-0.1-0.2-0.2-0.3-0.3c-4.1-4.2-4-11,0.3-15.1
	c4.2-4.1,11-4,15.1,0.3l234.7,234.7c4.2,4.2,4.2,10.9,0,15.1L135.7,487.7c-2,2-4.7,3.1-7.6,3.1C125.3,490.8,122.6,489.7,120.5,487.7
	z"/>
</svg>
